<svg width="169" height="24" viewBox="0 0 169 24" fill="none" xmlns="http://www.w3.org/2000/svg">
<g id="Logo">
<g id="icon">
<g id="Group 11">
<rect id="Rectangle 14" x="12.3438" y="11.6562" width="11.6571" height="12.3429" rx="3" fill="#002A4B"/>
<rect id="Rectangle 11" width="10.9714" height="24" rx="2" fill="#DA1845"/>
<rect id="Rectangle 12" x="13.0273" width="10.2857" height="10.2857" rx="5.14286" fill="#00345E"/>
</g>
</g>
<g id="logoText">
<path id="Vector" d="M168.405 11.1389H166.668V17.9108H164.482V11.1389H163.156V8.95328H164.482V6.14062H166.668V8.95328H168.405V11.1389Z" fill="#00345E"/>
<path id="Vector_2" d="M157.729 18.1443C156.905 18.1443 156.152 17.9323 155.471 17.5084C154.797 17.0844 154.256 16.5141 153.85 15.7975C153.45 15.0809 153.25 14.2896 153.25 13.4237C153.25 12.7728 153.366 12.1637 153.599 11.5964C153.832 11.0231 154.152 10.5215 154.558 10.0915C154.97 9.65561 155.448 9.31522 155.991 9.07038C156.534 8.82554 157.114 8.70312 157.729 8.70312C158.427 8.70312 159.066 8.85242 159.646 9.151C160.231 9.44361 160.727 9.8467 161.133 10.3603C161.539 10.8738 161.834 11.4591 162.019 12.1159C162.205 12.7728 162.246 13.4596 162.145 14.1762H155.597C155.68 14.5106 155.818 14.8121 156.009 15.0809C156.2 15.3436 156.442 15.5556 156.734 15.7169C157.027 15.8721 157.359 15.9527 157.729 15.9587C158.111 15.9647 158.457 15.8751 158.768 15.69C159.084 15.4989 159.347 15.2421 159.556 14.9196L161.787 15.4392C161.422 16.2334 160.879 16.8843 160.156 17.3919C159.434 17.8935 158.625 18.1443 157.729 18.1443ZM155.525 12.5369H159.932C159.867 12.1786 159.726 11.8562 159.511 11.5695C159.302 11.2769 159.043 11.044 158.732 10.8708C158.421 10.6977 158.087 10.6111 157.729 10.6111C157.37 10.6111 157.039 10.6977 156.734 10.8708C156.43 11.038 156.17 11.268 155.955 11.5606C155.746 11.8472 155.603 12.1727 155.525 12.5369Z" fill="#00345E"/>
<path id="Vector_3" d="M152.178 12.2503V17.9114H149.992V12.8236C149.992 12.4712 149.906 12.1518 149.732 11.8651C149.559 11.5725 149.326 11.3426 149.034 11.1754C148.747 11.0022 148.428 10.9156 148.075 10.9156C147.723 10.9156 147.4 11.0022 147.108 11.1754C146.821 11.3426 146.591 11.5725 146.418 11.8651C146.251 12.1518 146.167 12.4712 146.167 12.8236V17.9114H143.982L143.973 8.95394H146.158L146.167 9.75115C146.472 9.42868 146.836 9.17489 147.26 8.98976C147.684 8.79867 148.141 8.70312 148.631 8.70312C149.281 8.70312 149.876 8.86436 150.413 9.18683C150.951 9.50333 151.378 9.9303 151.694 10.4678C152.017 10.9992 152.178 11.5934 152.178 12.2503Z" fill="#00345E"/>
<path id="Vector_4" d="M139.704 8.9574H141.889V17.9149H139.704V8.9574ZM140.815 7.80188C140.492 7.80188 140.22 7.69737 139.999 7.48836C139.778 7.27338 139.668 7.00466 139.668 6.68219C139.668 6.36569 139.778 6.09995 139.999 5.88497C140.22 5.66999 140.489 5.5625 140.806 5.5625C141.122 5.5625 141.388 5.66999 141.603 5.88497C141.824 6.09995 141.934 6.36569 141.934 6.68219C141.934 7.00466 141.827 7.27338 141.612 7.48836C141.397 7.69737 141.131 7.80188 140.815 7.80188Z" fill="#00345E"/>
<path id="Vector_5" d="M133.761 8.70451C134.633 8.70451 135.428 8.9165 136.144 9.34049C136.861 9.76448 137.431 10.3348 137.855 11.0514C138.279 11.762 138.491 12.5503 138.491 13.4162C138.491 14.0671 138.369 14.6792 138.124 15.2524C137.879 15.8257 137.539 16.3303 137.103 16.7663C136.673 17.1962 136.171 17.5336 135.598 17.7785C135.03 18.0233 134.418 18.1457 133.761 18.1457C133.2 18.1457 132.702 18.0203 132.266 17.7695C131.836 17.5127 131.474 17.1813 131.182 16.7752V17.9128H128.996V4.47656H131.182V10.075C131.474 9.66893 131.836 9.34049 132.266 9.08968C132.702 8.8329 133.2 8.70451 133.761 8.70451ZM133.735 16.0317C134.2 16.0317 134.621 15.9153 134.998 15.6824C135.38 15.4435 135.684 15.127 135.911 14.7329C136.138 14.3388 136.252 13.8999 136.252 13.4162C136.252 12.9384 136.138 12.5025 135.911 12.1084C135.684 11.7083 135.38 11.3918 134.998 11.1589C134.615 10.926 134.194 10.8095 133.735 10.8095C133.281 10.8095 132.875 10.929 132.516 11.1678C132.158 11.4007 131.877 11.7172 131.674 12.1173C131.471 12.5114 131.37 12.9444 131.37 13.4162C131.37 13.8999 131.471 14.3418 131.674 14.7419C131.877 15.136 132.158 15.4495 132.516 15.6824C132.875 15.9153 133.281 16.0317 133.735 16.0317Z" fill="#00345E"/>
<path id="Vector_6" d="M124.975 8.95394H127.161V17.9114H124.975L124.876 16.8007C124.632 17.2008 124.306 17.5263 123.9 17.7771C123.5 18.0219 123.025 18.1443 122.476 18.1443C121.813 18.1443 121.192 18.0189 120.613 17.7681C120.033 17.5173 119.523 17.171 119.081 16.7291C118.645 16.2871 118.302 15.7766 118.051 15.1973C117.806 14.6181 117.684 13.997 117.684 13.3342C117.684 12.6952 117.8 12.095 118.033 11.5337C118.272 10.9724 118.603 10.4797 119.027 10.0557C119.451 9.63172 119.941 9.30029 120.496 9.06142C121.052 8.82256 121.649 8.70312 122.288 8.70312C122.879 8.70312 123.407 8.8345 123.873 9.09725C124.345 9.36001 124.745 9.69442 125.074 10.1005L124.975 8.95394ZM122.422 16.0393C122.888 16.0393 123.3 15.9229 123.658 15.69C124.017 15.4571 124.297 15.1436 124.5 14.7494C124.703 14.3493 124.805 13.9104 124.805 13.4327C124.805 12.949 124.703 12.5101 124.5 12.1159C124.297 11.7158 124.014 11.3993 123.649 11.1664C123.291 10.9335 122.882 10.8171 122.422 10.8171C121.962 10.8171 121.541 10.9365 121.159 11.1754C120.783 11.4083 120.481 11.7218 120.254 12.1159C120.033 12.5101 119.923 12.949 119.923 13.4327C119.923 13.9164 120.036 14.3553 120.263 14.7494C120.49 15.1436 120.792 15.4571 121.168 15.69C121.55 15.9229 121.968 16.0393 122.422 16.0393Z" fill="#00345E"/>
<path id="Vector_7" d="M112.077 18.1469C111.229 18.1469 110.432 17.9797 109.685 17.6453C108.939 17.3049 108.282 16.8361 107.715 16.239C107.153 15.6418 106.711 14.9521 106.389 14.1698C106.072 13.3815 105.914 12.5395 105.914 11.6438C105.914 10.7421 106.072 9.90005 106.389 9.11776C106.711 8.3295 107.153 7.63977 107.715 7.04857C108.282 6.45141 108.939 5.98562 109.685 5.6512C110.432 5.31082 111.229 5.14062 112.077 5.14062C113.092 5.14062 114.027 5.37651 114.881 5.84827C115.734 6.31406 116.442 6.9381 117.003 7.72039L115.051 8.76842C114.698 8.33248 114.259 7.98314 113.734 7.72039C113.214 7.45763 112.662 7.32626 112.077 7.32626C111.527 7.32626 111.011 7.43972 110.527 7.66664C110.043 7.88759 109.619 8.19812 109.255 8.59822C108.891 8.99235 108.607 9.45217 108.404 9.97768C108.201 10.4972 108.1 11.0526 108.1 11.6438C108.1 12.2409 108.201 12.7993 108.404 13.3188C108.613 13.8384 108.9 14.2982 109.264 14.6983C109.628 15.0924 110.049 15.4029 110.527 15.6299C111.011 15.8508 111.527 15.9613 112.077 15.9613C112.674 15.9613 113.229 15.8299 113.743 15.5672C114.262 15.2984 114.698 14.9461 115.051 14.5102L117.003 15.5672C116.442 16.3435 115.734 16.9675 114.881 17.4393C114.027 17.911 113.092 18.1469 112.077 18.1469Z" fill="#00345E"/>
<path id="Vector_8" d="M97.6292 8.95165H99.8149V18.0793C99.8149 18.7243 99.6835 19.3095 99.4207 19.835C99.158 20.3665 98.7997 20.8203 98.3458 21.1966C97.892 21.5787 97.3725 21.8714 96.7872 22.0744C96.202 22.2834 95.5869 22.3879 94.942 22.3879C94.315 22.3879 93.7118 22.2595 93.1326 22.0027C92.5533 21.7459 92.0397 21.3936 91.5919 20.9457C91.15 20.5038 90.8126 19.9992 90.5797 19.4319L92.5772 18.5272C92.6966 18.8557 92.8758 19.1423 93.1146 19.3871C93.3595 19.6379 93.6402 19.832 93.9567 19.9694C94.2732 20.1127 94.6016 20.1844 94.942 20.1844C95.2883 20.1844 95.6198 20.1366 95.9363 20.041C96.2587 19.9455 96.5484 19.8052 96.8051 19.62C97.0619 19.4409 97.262 19.2199 97.4053 18.9572C97.5546 18.7004 97.6292 18.4078 97.6292 18.0793V16.8163C97.3486 17.2105 96.9962 17.53 96.5722 17.7748C96.1483 18.0196 95.6586 18.142 95.1032 18.142C94.4583 18.142 93.8551 18.0196 93.2938 17.7748C92.7325 17.53 92.2368 17.1926 91.8069 16.7626C91.3829 16.3267 91.0485 15.825 90.8036 15.2577C90.5647 14.6904 90.4453 14.0813 90.4453 13.4304C90.4453 12.7795 90.5647 12.1704 90.8036 11.6031C91.0485 11.0358 91.3829 10.5371 91.8069 10.1072C92.2368 9.67123 92.7325 9.33085 93.2938 9.08601C93.8551 8.84117 94.4583 8.71875 95.1032 8.71875C95.6586 8.71875 96.1483 8.84117 96.5722 9.08601C96.9962 9.32487 97.3486 9.64137 97.6292 10.0355V8.95165ZM95.1301 16.037C95.5899 16.037 95.996 15.9206 96.3483 15.6877C96.7066 15.4488 96.9873 15.1323 97.1903 14.7382C97.3934 14.3381 97.4949 13.9022 97.4949 13.4304C97.4949 12.9527 97.3904 12.5167 97.1814 12.1226C96.9783 11.7285 96.6977 11.412 96.3394 11.1731C95.987 10.9342 95.5839 10.8148 95.1301 10.8148C94.6822 10.8148 94.2732 10.9342 93.9029 11.1731C93.5327 11.406 93.2371 11.7195 93.0161 12.1136C92.7952 12.5078 92.6847 12.9467 92.6847 13.4304C92.6847 13.9141 92.7952 14.353 93.0161 14.7472C93.2371 15.1413 93.5327 15.4548 93.9029 15.6877C94.2732 15.9206 94.6822 16.037 95.1301 16.037Z" fill="#00345E"/>
<path id="Vector_9" d="M89.373 12.2503V17.9114H87.1874V12.8236C87.1874 12.4712 87.1008 12.1518 86.9276 11.8651C86.7545 11.5725 86.5216 11.3426 86.229 11.1754C85.9423 11.0022 85.6228 10.9156 85.2705 10.9156C84.9182 10.9156 84.5957 11.0022 84.3031 11.1754C84.0165 11.3426 83.7865 11.5725 83.6134 11.8651C83.4462 12.1518 83.3626 12.4712 83.3626 12.8236V17.9114H81.1769L81.168 8.95394H83.3536L83.3626 9.75115C83.6671 9.42868 84.0314 9.17489 84.4554 8.98976C84.8794 8.79867 85.3362 8.70312 85.8259 8.70312C86.4768 8.70312 87.071 8.86436 87.6084 9.18683C88.1459 9.50333 88.5728 9.9303 88.8893 10.4678C89.2118 10.9992 89.373 11.5934 89.373 12.2503Z" fill="#00345E"/>
<path id="Vector_10" d="M76.8991 8.9574H79.0847V17.9149H76.8991V8.9574ZM78.0098 7.80188C77.6874 7.80188 77.4157 7.69737 77.1947 7.48836C76.9738 7.27338 76.8633 7.00466 76.8633 6.68219C76.8633 6.36569 76.9738 6.09995 77.1947 5.88497C77.4157 5.66999 77.6844 5.5625 78.0009 5.5625C78.3174 5.5625 78.5831 5.66999 78.7981 5.88497C79.0191 6.09995 79.1295 6.36569 79.1295 6.68219C79.1295 7.00466 79.022 7.27338 78.8071 7.48836C78.5921 7.69737 78.3263 7.80188 78.0098 7.80188Z" fill="#00345E"/>
<path id="Vector_11" d="M75.1113 12.2503V17.9114H72.9257V12.8236C72.9257 12.4712 72.8391 12.1518 72.6659 11.8651C72.4927 11.5725 72.2599 11.3426 71.9672 11.1754C71.6806 11.0022 71.3611 10.9156 71.0088 10.9156C70.6565 10.9156 70.334 11.0022 70.0414 11.1754C69.7547 11.3426 69.5248 11.5725 69.3516 11.8651C69.1844 12.1518 69.1008 12.4712 69.1008 12.8236V17.9114H66.9152L66.9062 8.95394H69.0919L69.1008 9.75115C69.4054 9.42868 69.7697 9.17489 70.1937 8.98976C70.6176 8.79867 71.0745 8.70312 71.5642 8.70312C72.2151 8.70312 72.8092 8.86436 73.3467 9.18683C73.8841 9.50333 74.3111 9.9303 74.6276 10.4678C74.9501 10.9992 75.1113 11.5934 75.1113 12.2503Z" fill="#00345E"/>
<path id="Vector_12" d="M60.2355 17.9114L60.2266 8.95394H62.4122L62.4211 9.75115C62.7257 9.42868 63.09 9.17489 63.514 8.98976C63.938 8.79867 64.3948 8.70312 64.8845 8.70312C65.2129 8.70312 65.5413 8.7509 65.8698 8.84644L65.0099 11.05C64.7829 10.9604 64.556 10.9156 64.3291 10.9156C63.9768 10.9156 63.6543 11.0022 63.3617 11.1754C63.075 11.3426 62.8451 11.5725 62.672 11.8651C62.5048 12.1518 62.4211 12.4712 62.4211 12.8236V17.9114H60.2355Z" fill="#00345E"/>
<path id="Vector_13" d="M56.2563 8.95394H58.4419V17.9114H56.2563L56.1577 16.8007C55.9129 17.2008 55.5874 17.5263 55.1814 17.7771C54.7813 18.0219 54.3065 18.1443 53.7571 18.1443C53.0943 18.1443 52.4732 18.0189 51.8939 17.7681C51.3147 17.5173 50.8041 17.171 50.3622 16.7291C49.9263 16.2871 49.5829 15.7766 49.3321 15.1973C49.0873 14.6181 48.9648 13.997 48.9648 13.3342C48.9648 12.6952 49.0813 12.095 49.3142 11.5337C49.5531 10.9724 49.8845 10.4797 50.3085 10.0557C50.7325 9.63172 51.2221 9.30029 51.7775 9.06142C52.3329 8.82256 52.93 8.70312 53.569 8.70312C54.1602 8.70312 54.6887 8.8345 55.1545 9.09725C55.6262 9.36001 56.0263 9.69442 56.3548 10.1005L56.2563 8.95394ZM53.7034 16.0393C54.1692 16.0393 54.5812 15.9229 54.9395 15.69C55.2978 15.4571 55.5785 15.1436 55.7815 14.7494C55.9845 14.3493 56.0861 13.9104 56.0861 13.4327C56.0861 12.949 55.9845 12.5101 55.7815 12.1159C55.5785 11.7158 55.2948 11.3993 54.9305 11.1664C54.5722 10.9335 54.1632 10.8171 53.7034 10.8171C53.2435 10.8171 52.8225 10.9365 52.4404 11.1754C52.0641 11.4083 51.7626 11.7218 51.5356 12.1159C51.3147 12.5101 51.2042 12.949 51.2042 13.4327C51.2042 13.9164 51.3177 14.3553 51.5446 14.7494C51.7715 15.1436 52.0731 15.4571 52.4493 15.69C52.8315 15.9229 53.2495 16.0393 53.7034 16.0393Z" fill="#00345E"/>
<path id="Vector_14" d="M43.592 18.1443C42.7679 18.1443 42.0155 17.9323 41.3347 17.5084C40.6599 17.0844 40.1195 16.5141 39.7134 15.7975C39.3133 15.0809 39.1133 14.2896 39.1133 13.4237C39.1133 12.7728 39.2297 12.1637 39.4626 11.5964C39.6955 11.0231 40.015 10.5215 40.4211 10.0915C40.8331 9.65561 41.3109 9.31522 41.8543 9.07038C42.3977 8.82554 42.977 8.70312 43.592 8.70312C44.2907 8.70312 44.9297 8.85242 45.5089 9.151C46.0942 9.44361 46.5898 9.8467 46.9959 10.3603C47.402 10.8738 47.6976 11.4591 47.8827 12.1159C48.0678 12.7728 48.1096 13.4596 48.0081 14.1762H41.4601C41.5438 14.5106 41.6811 14.8121 41.8722 15.0809C42.0633 15.3436 42.3051 15.5556 42.5978 15.7169C42.8904 15.8721 43.2218 15.9527 43.592 15.9587C43.9742 15.9647 44.3206 15.8751 44.6311 15.69C44.9476 15.4989 45.2104 15.2421 45.4194 14.9196L47.6498 15.4392C47.2855 16.2334 46.7421 16.8843 46.0195 17.3919C45.2969 17.8935 44.4878 18.1443 43.592 18.1443ZM41.3885 12.5369H45.7956C45.7299 12.1786 45.5896 11.8562 45.3746 11.5695C45.1656 11.2769 44.9058 11.044 44.5953 10.8708C44.2847 10.6977 43.9503 10.6111 43.592 10.6111C43.2337 10.6111 42.9023 10.6977 42.5978 10.8708C42.2932 11.038 42.0334 11.268 41.8184 11.5606C41.6094 11.8472 41.4661 12.1727 41.3885 12.5369Z" fill="#00345E"/>
<path id="Vector_15" d="M31.0078 17.9155V5.375H33.1934V15.7299H38.4157V17.9155H31.0078Z" fill="#00345E"/>
</g>
</g>
</svg>
