<?xml version="1.0" encoding="utf-8"?>
<!-- Generator: Adobe Illustrator 22.0.1, SVG Export Plug-In . SVG Version: 6.00 Build 0)  -->
<svg version="1.1" id="Layer_1" xmlns="http://www.w3.org/2000/svg" xmlns:xlink="http://www.w3.org/1999/xlink" x="0px" y="0px"
	 width="320.5px" height="53.9px" viewBox="0 0 320.5 53.9" style="enable-background:new 0 0 320.5 53.9;" xml:space="preserve">
<style type="text/css">
	.st0{fill:#03E27C;}
</style>
<g>
	<g>
		<path class="st0" d="M0,3.5h10.6v48H0V3.5z"/>
		<path class="st0" d="M15.9,17.4H25l0.8,3.8c1.2-1.3,2.5-2.2,4-3.3c1.6-0.8,3.3-1.2,5-1.2c2.6,0,5,0.5,6.7,1.7
			c1.9,1.2,3.3,2.9,4.3,5c0.9,2.1,1.6,5,1.6,8v20.1H37.1V32.7c0-2.2-0.4-4.2-1.6-5.3c-1.2-1.2-2.2-1.7-4.2-1.7
			c-1.9,0-3.3,0.5-4.3,1.7c-0.9,1.2-1.6,2.9-1.6,5.1v18.8h-9.8L15.9,17.4L15.9,17.4z"/>
		<path class="st0" d="M59.3,17.4l7.2,22.4l7.2-22.4h10.8L72,51.6H60.9L48.4,17.4C48.8,17.4,59.3,17.4,59.3,17.4z"/>
		<path class="st0" d="M116.1,24.7c-1.6-2.5-3.3-4.3-5.9-5.9c-2.5-1.3-5.5-2.1-8.9-2.1c-3.3,0-6,0.5-8.8,2.1c-2.6,1.6-4.6,3.4-6,6
			c-1.3,2.6-2.1,5.7-2.1,9.1c0,3.6,0.5,6.8,2.1,9.5s3.4,4.7,6,6.3c2.5,1.6,5.7,2.2,9.1,2.2c3.8,0,7-0.9,9.8-2.2c2.6-1.7,4.6-4,6-7.2
			l-8.9-2.5c-0.5,0.9-1.6,1.9-2.6,2.5c-1.2,0.5-2.2,0.9-3.8,0.9c-1.2,0-2.2-0.4-3.3-0.8c-0.9-0.5-1.7-1.2-2.5-2.1
			c-0.5-0.9-0.9-1.9-1.3-3.3h22.7c0-0.8,0.2-1.6,0.2-2.1v-1.7C118.2,30.2,117.6,27.4,116.1,24.7z M95.4,31c0-1.2,0.4-2.1,0.9-3
			c0.5-0.9,1.2-1.7,2.1-2.1c0.8-0.5,1.9-0.9,2.9-0.9c0.9,0,1.9,0.4,2.9,0.8c0.8,0.5,1.6,1.2,2.1,2.1c0.5,0.9,0.9,1.9,0.9,3L95.4,31z
			"/>
		<path class="st0" d="M129.1,40.1c0.2,0.9,0.5,1.6,0.9,2.1c0.5,0.5,1.2,0.9,1.9,1.2c0.8,0.4,1.6,0.4,2.2,0.4c1.6,0,2.6-0.4,3.3-0.9
			c0.8-0.5,1.2-1.2,1.2-1.9s-0.4-1.6-0.9-1.7c-0.5-0.4-1.3-0.8-2.2-0.9c-0.9-0.4-1.9-0.4-2.9-0.8c-1.2-0.4-2.5-0.5-3.8-0.9
			c-1.6-0.4-2.6-0.9-4-1.7c-1.3-0.8-2.2-1.7-3.3-2.9s-1.3-2.7-1.3-4.7c0-2.1,0.5-4,1.7-5.5s2.6-2.9,5-3.8c2.1-0.9,4.6-1.6,7.4-1.6
			c3.6,0,6.4,0.8,8.7,2.1c2.2,1.3,3.8,3.4,4.7,6l-8.5,2.5c-0.2-0.5-0.5-1.2-0.9-1.6s-0.9-0.5-1.7-0.9c-0.5-0.2-1.3-0.4-2.1-0.4
			c-1.3,0-2.1,0.4-2.9,0.8c-0.8,0.4-0.9,0.9-0.9,1.7c0,0.4,0.2,0.9,0.4,1.2c0.2,0.2,0.8,0.5,1.3,0.8c0.5,0.2,1.2,0.4,1.9,0.4
			c0.8,0.2,1.6,0.4,2.2,0.5c1.6,0.4,2.9,0.8,4.3,1.2c1.6,0.4,2.6,0.9,4,1.9c1.3,0.8,2.2,1.7,3,3c0.8,1.3,1.2,2.9,1.2,5
			c0,2.1-0.5,3.8-1.7,5.5c-1.2,1.7-2.9,3-5,4c-2.1,0.9-5,1.6-8,1.6c-3.8,0-7-0.8-9.7-2.2c-2.6-1.6-4.2-3.8-5-7.2L129.1,40.1z"/>
		<path class="st0" d="M155.1,17.4V7.7h10.2v9.7h7.2v8.9h-7.2v12.3c0,1.6,0.4,2.6,1.2,3.3c0.8,0.5,1.7,0.9,2.6,0.9
			c1.2,0,2.1-0.2,3.3-0.4v8.7c-2.2,0.4-4.6,0.5-6.7,0.4c-2.1-0.2-3.8-0.8-5.5-1.7c-1.6-0.9-2.9-2.2-3.8-4.2
			c-0.9-1.9-1.6-4.3-1.6-7.2V26.1h-4.6v-8.9L155.1,17.4L155.1,17.4z"/>
		<path class="st0" d="M209,34.4c0,3.6-0.9,6.7-2.5,9.5c-1.6,2.6-3.8,4.7-6.4,6c-2,1.1-4.3,1.8-7.1,2v-5.1c1.4-0.1,2.7-0.4,3.9-0.9
			c1.4-0.6,2.6-1.5,3.3-2.6c0.8-1.1,1.2-2.3,1.2-3.7c0-1.6-0.5-2.9-1.2-3.8c-0.5-0.6-1.1-1.1-1.7-1.5c-0.4-0.2-0.8-0.5-1.2-0.6
			c-1.1-0.5-2.5-0.9-4.1-1.3v-5.2c0.4,0.2,0.8,0.3,1.1,0.6c0.7,0.5,1.1,1.3,1.2,2.2h5.8c-0.2-2.4-1.1-4.3-2.8-5.8
			c-1.4-1.2-3.1-1.9-5.3-2.1v-5.2c2.7,0.2,5.2,0.9,7.4,2c2.6,1.5,4.7,3.4,6.3,6C208.2,27.8,209,30.8,209,34.4z"/>
		<path class="st0" d="M212.8,17.4h9.1l0.8,4.6c0.9-1.2,1.9-2.1,3.3-3c1.2-0.8,2.6-1.3,4-1.6c1.6-0.4,3.3-0.4,5,0v9.5
			c-1.2-0.4-2.5-0.4-3.8-0.4c-1.6,0.2-2.6,0.5-3.8,1.6c-1.3,0.8-2.2,1.9-3,3.3c-0.8,1.6-1.2,3.3-1.2,5.5v14.8h-10.1L212.8,17.4
			L212.8,17.4z"/>
		<path class="st0" d="M236.9,2.2H247v49.3h-10.1V2.2z"/>
		<path class="st0" d="M262.6,3.9c-1.3-1.2-2.6-1.7-4.6-1.7c-1.9,0-3.4,0.5-4.6,1.7s-1.7,2.5-1.7,4.2c0,1.6,0.5,3,1.7,4.2
			s2.6,1.7,4.6,1.7c1.9,0,3.4-0.5,4.6-1.7c1.2-1.2,1.7-2.6,1.7-4.2S263.8,5,262.6,3.9z M253.2,17.4v34.4h10.2V17.4H253.2z"/>
		<path class="st0" d="M276.9,40.1c0.2,0.9,0.5,1.6,0.9,2.1c0.5,0.5,1.2,0.9,1.9,1.2c0.7,0.2,1.6,0.4,2.2,0.4c1.6,0,2.6-0.4,3.3-0.9
			c0.8-0.5,1.2-1.2,1.2-1.9s-0.4-1.6-0.9-1.7c-0.5-0.2-1.3-0.8-2.2-0.9c-0.9-0.4-1.9-0.4-2.9-0.8c-1.2-0.4-2.5-0.5-3.8-0.9
			c-1.6-0.4-2.6-0.9-4-1.7c-1.3-0.8-2.2-1.7-3.3-2.9c-0.9-1.2-1.3-2.6-1.3-4.6c0-2.1,0.5-4,1.7-5.5c1.2-1.6,2.6-2.9,5-3.8
			c2.1-0.9,4.6-1.6,7.4-1.6c3.6,0,6.4,0.8,8.7,2.1c2.2,1.6,3.8,3.4,4.7,6l-8.5,2.5c-0.2-0.5-0.5-1.2-0.9-1.6
			c-0.4-0.4-0.9-0.5-1.7-0.9c-0.5-0.2-1.3-0.4-2.1-0.4c-1.3,0-2.1,0.4-2.9,0.8s-0.9,0.9-0.9,1.7c0,0.4,0.2,0.9,0.4,1.2
			c0.4,0.4,0.8,0.5,1.3,0.8c0.5,0.2,1.2,0.4,1.9,0.4c0.8,0.2,1.6,0.4,2.2,0.5c1.6,0.4,2.9,0.8,4.3,1.2c1.6,0.4,2.6,0.9,4,1.9
			c1.3,0.8,2.2,1.7,3,3c0.8,1.3,1.2,2.9,1.2,5c0,2.1-0.5,3.8-1.7,5.5c-1.2,1.7-2.9,3-5,4c-2.1,0.9-5,1.6-8,1.6c-3.8,0-7-0.8-9.7-2.2
			c-2.6-1.6-4.2-3.8-5-7.2L276.9,40.1z"/>
		<path class="st0" d="M303,17.4V7.7h10.2v9.7h7.2v8.9h-7.2v12.3c0,1.6,0.4,2.6,1.2,3.3c0.8,0.5,1.7,0.9,2.6,0.9
			c1.2,0,2.1-0.2,3.3-0.4v8.7c-2.2,0.4-4.6,0.5-6.7,0.4c-2.1-0.2-3.8-0.8-5.5-1.7c-1.6-0.9-2.9-2.2-3.8-4.2
			c-0.9-1.9-1.6-4.3-1.6-7.2V26.1h-4.6v-8.9L303,17.4L303,17.4z"/>
		<path class="st0" d="M189.8,27.1v4.3c-0.3-0.2-0.5-0.2-0.8-0.4c-0.8-0.4-1.2-1-1.2-1.9c0-0.7,0.3-1.3,0.9-1.7
			C189,27.2,189.4,27.1,189.8,27.1z"/>
		<path class="st0" d="M195.6,39.6c0,0.7-0.3,1.3-1,1.8c-0.4,0.3-0.9,0.5-1.6,0.6v-4.7c0.5,0.2,0.9,0.4,1.3,0.5
			C195.1,38.3,195.6,38.8,195.6,39.6z"/>
	</g>
	<path class="st0" d="M183.2,25.7c-0.8,1.1-1.2,2.3-1.2,3.6c0,1.6,0.4,2.9,1.2,3.9c0.4,0.5,0.9,0.9,1.3,1.2c0.5,0.4,1.1,0.7,1.6,0.9
		c1,0.4,2.2,0.8,3.7,1.2v5.3c-0.4-0.2-0.7-0.3-0.9-0.5c-0.8-0.6-1.2-1.4-1.4-2.3h-6.1c0.1,1.5,0.6,2.8,1.5,4
		c0.9,1.2,2.2,2.2,3.7,2.9c1,0.5,2.1,0.8,3.3,0.9V52c-2.7-0.2-5.2-0.9-7.6-2c-2.6-1.6-4.7-3.4-6.3-6s-2.2-5.7-2.2-9.5
		c0-3.6,0.8-6.6,2.2-9.3c1.6-2.6,3.8-4.7,6.3-6c2.2-1.3,4.7-1.9,7.6-2.1v5.2c-1.2,0.2-2.4,0.4-3.4,0.9
		C185,23.7,183.9,24.6,183.2,25.7z"/>
</g>
</svg>
