<svg xmlns="http://www.w3.org/2000/svg" viewBox="0 0 120.38 32.93"><defs><style>.cls-1{fill:#f6e863;}.cls-2{fill:#fff;}</style></defs><g id="Layer_2" data-name="Layer 2"><g id="Layer_1-2" data-name="Layer 1"><path id="Rectangle_1153" data-name="Rectangle 1153" d="M5,0H115.41c2.74,0,5,1.79,5,4V28.93c0,2.21-2.23,4-5,4H5c-2.75,0-5-1.79-5-4V4C0,1.79,2.22,0,5,0Z"/><g id="Group_1844" data-name="Group 1844"><path id="Path_11" data-name="Path 11" class="cls-1" d="M7.94,13.57v5.35h.42c1-2.09,3.67-3.58,6.81-3.58V8.17C11.18,8.17,7.94,10.58,7.94,13.57Z"/><path id="Path_12" data-name="Path 12" class="cls-1" d="M22.05,15.34c-1,2.1-3.67,3.61-6.83,3.61v7.17c4,0,7.24-2.42,7.24-5.4V15.34Z"/></g><path class="cls-2" d="M28.28,15.7h1.39l2.62,8,2.44-8h1l2.44,8,2.62-8h1.39L38.68,25.91h-1L35.22,18l-2.47,7.9h-1Z"/><path class="cls-2" d="M48.38,22.92H43.17A2,2,0,0,0,45.28,25a1.77,1.77,0,0,0,1.78-1h1.27a2.88,2.88,0,0,1-3,2.1,3.22,3.22,0,0,1-3.37-3.55A3.23,3.23,0,0,1,45.22,19a3,3,0,0,1,3.18,3.17C48.4,22.43,48.4,22.61,48.38,22.92Zm-1.22-1A1.78,1.78,0,0,0,45.21,20a1.91,1.91,0,0,0-2,1.91Z"/><path class="cls-2" d="M57,22.56a3.31,3.31,0,0,1-3.32,3.53,2.7,2.7,0,0,1-2.41-1.36v1.18H50.06V15.7h1.25v4.68A2.75,2.75,0,0,1,53.79,19,3.25,3.25,0,0,1,57,22.56Zm-1.27,0a2.26,2.26,0,1,0-4.52,0A2.25,2.25,0,0,0,53.54,25,2.23,2.23,0,0,0,55.77,22.56Z"/><path class="cls-2" d="M69.11,23.13c0,1.73-1.21,2.78-3.16,2.78h-3.5V15.7H65.8c2,0,3.18,1,3.18,2.64a2.2,2.2,0,0,1-1.92,2.36A2.31,2.31,0,0,1,69.11,23.13Zm-5.34-6.25v3.27h2.08a1.61,1.61,0,0,0,1.8-1.63c0-1.05-.71-1.64-1.89-1.64Zm4,6.11A1.63,1.63,0,0,0,66,21.32H63.77v3.41h2.15A1.67,1.67,0,0,0,67.79,23Z"/><path class="cls-2" d="M70.87,19.19h1.27v1.53a2,2,0,0,1,2-1.64,2.68,2.68,0,0,1,.61.06v1.17a3.28,3.28,0,0,0-.63,0c-1.33,0-2,1.21-2,2.71v2.93H70.87Z"/><path class="cls-2" d="M75.38,22.56a3.5,3.5,0,1,1,7,0,3.5,3.5,0,1,1-7,0Zm5.73,0a2.25,2.25,0,1,0-4.48,0,2.24,2.24,0,1,0,4.48,0Z"/><path class="cls-2" d="M82.73,19.19h1.39l1.6,4.91,1.65-4.91h1.36l1.63,4.91L92,19.19h1.39l-2.48,6.72H89.81L88,20.75l-1.76,5.16H85.21Z"/><path class="cls-2" d="M93.94,23.9H95.2c0,.66.61,1.17,1.6,1.17.74,0,1.24-.37,1.24-1s-.2-.75-1-1l-1.37-.35a1.83,1.83,0,0,1-1.51-1.85c0-1.14,1-1.93,2.5-1.93,1.61,0,2.59.78,2.59,2H98c0-.64-.51-1.05-1.39-1.05-.7,0-1.21.33-1.21.89s.25.73,1,.93l1.38.38a1.9,1.9,0,0,1,1.56,1.87c0,1.28-1,2-2.59,2S93.94,25.14,93.94,23.9Z"/><path class="cls-2" d="M107,22.92h-5.21A2,2,0,0,0,103.86,25a1.76,1.76,0,0,0,1.78-1h1.27a2.88,2.88,0,0,1-3,2.1,3.22,3.22,0,0,1-3.37-3.55A3.23,3.23,0,0,1,103.81,19,3,3,0,0,1,107,22.18,6.62,6.62,0,0,1,107,22.92Zm-1.21-1a1.78,1.78,0,0,0-2-1.91,1.91,1.91,0,0,0-2,1.91Z"/><path class="cls-2" d="M108.64,19.19h1.27v1.53a2,2,0,0,1,2-1.64,2.68,2.68,0,0,1,.61.06v1.17a3.28,3.28,0,0,0-.63,0c-1.33,0-2,1.21-2,2.71v2.93h-1.27Z"/><path class="cls-2" d="M28.28,9.07A2.57,2.57,0,0,1,31,6.34a2.31,2.31,0,0,1,2.49,1.83h-.74A1.63,1.63,0,0,0,31,7a1.93,1.93,0,0,0-2,2.12,1.93,1.93,0,0,0,2,2.11A1.63,1.63,0,0,0,32.73,10h.74A2.31,2.31,0,0,1,31,11.79,2.57,2.57,0,0,1,28.28,9.07Z"/><path class="cls-2" d="M34.1,10a1.79,1.79,0,1,1,3.58,0,1.79,1.79,0,1,1-3.58,0ZM37,10a1.15,1.15,0,1,0-2.29,0A1.15,1.15,0,1,0,37,10Z"/><path class="cls-2" d="M38.51,8.24h.65v.63a1.23,1.23,0,0,1,1.2-.72c.84,0,1.28.49,1.28,1.41v2.11H41V9.84c0-.77-.26-1.13-.87-1.13s-1,.45-1,1.14v1.82h-.65Z"/><path class="cls-2" d="M44.49,11.09v.57a2.87,2.87,0,0,1-.58.06c-.4,0-1-.08-1-1.19V8.78h-.62V8.24h.62V7.15h.65V8.24h.86v.54h-.86v1.61c0,.66.22.75.55.75A2.68,2.68,0,0,0,44.49,11.09Z"/><path class="cls-2" d="M45.07,7.13a.53.53,0,1,1,.53.52A.51.51,0,0,1,45.07,7.13Zm.2,1.11h.65v3.43h-.65Z"/><path class="cls-2" d="M47,8.24h.65v.63a1.23,1.23,0,0,1,1.2-.72c.84,0,1.28.49,1.28,1.41v2.11h-.65V9.84c0-.77-.25-1.13-.86-1.13s-1,.45-1,1.14v1.82H47Z"/><path class="cls-2" d="M51.2,10.35V8.24h.65v2c0,.61.22,1,.83,1a1,1,0,0,0,1-1.08V8.24h.65v3.43h-.65v-.62a1.21,1.21,0,0,1-1.16.71A1.24,1.24,0,0,1,51.2,10.35Z"/><path class="cls-2" d="M58.45,10.14H55.79a1,1,0,0,0,1.08,1.06.89.89,0,0,0,.91-.51h.65a1.47,1.47,0,0,1-1.56,1.07A1.64,1.64,0,0,1,55.15,10a1.64,1.64,0,0,1,1.69-1.8,1.55,1.55,0,0,1,1.63,1.62A2.49,2.49,0,0,1,58.45,10.14Zm-.62-.49a.91.91,0,0,0-1-1,1,1,0,0,0-1,1Z"/><path class="cls-2" d="M60.7,8.24h.7l.82,2.51.85-2.51h.69l.83,2.51.83-2.51h.71l-1.27,3.43h-.55L63.41,9l-.9,2.64H62Z"/><path class="cls-2" d="M66.54,7.13a.53.53,0,1,1,1,0,.53.53,0,0,1-1,0Zm.21,1.11h.64v3.43h-.64Z"/><path class="cls-2" d="M70.38,11.09v.57a2.87,2.87,0,0,1-.58.06c-.41,0-1-.08-1-1.19V8.78h-.62V8.24h.62V7.15h.64V8.24h.87v.54h-.87v1.61c0,.66.23.75.55.75A2.81,2.81,0,0,0,70.38,11.09Z"/><path class="cls-2" d="M74.3,9.56v2.11h-.65V9.84c0-.77-.25-1.13-.87-1.13s-1,.45-1,1.14v1.82h-.65V6.46h.65V8.87A1.21,1.21,0,0,1,73,8.15C73.86,8.15,74.3,8.64,74.3,9.56Z"/><path class="cls-2" d="M80.36,8.24v3.5A1.63,1.63,0,0,1,79.9,13a1.69,1.69,0,0,1-1.12.37A1.8,1.8,0,0,1,77.61,13a1.14,1.14,0,0,1-.38-.89h.65c0,.42.25.7.89.7s1-.32,1-1.11v-.64a1.25,1.25,0,0,1-1.19.7c-.89,0-1.3-.59-1.3-1.46v-2h.64v1.91c0,.61.2,1,.88,1s1-.56,1-1.18V8.24Z"/><path class="cls-2" d="M81.22,10a1.79,1.79,0,1,1,3.57,0,1.79,1.79,0,1,1-3.57,0Zm2.92,0a1.14,1.14,0,1,0-2.28,0,1.14,1.14,0,1,0,2.28,0Z"/><path class="cls-2" d="M85.59,10.35V8.24h.65v2c0,.61.22,1,.83,1a1,1,0,0,0,1-1.08V8.24h.65v3.43h-.65v-.62a1.21,1.21,0,0,1-1.16.71A1.24,1.24,0,0,1,85.59,10.35Z"/><path class="cls-2" d="M89.82,8.24h.64V9a1,1,0,0,1,1-.83,1,1,0,0,1,.31,0v.59a1.67,1.67,0,0,0-.32,0c-.68,0-1,.62-1,1.38v1.5h-.64Z"/></g></g></svg>